<svg width="56" height="56" viewBox="0 0 56 56" fill="none" xmlns="http://www.w3.org/2000/svg">
<path fill-rule="evenodd" clip-rule="evenodd" d="M28.0018 7.6238C22.5129 7.6238 17.2488 9.80426 13.3676 13.6855C9.48632 17.5668 7.30586 22.8309 7.30586 28.3198C7.30586 33.8087 9.48632 39.0728 13.3676 42.954C17.2488 46.8353 22.5129 49.0157 28.0018 49.0157C33.4907 49.0157 38.7548 46.8353 42.6361 42.954C46.5173 39.0728 48.6978 33.8087 48.6978 28.3198C48.6978 22.8309 46.5173 17.5668 42.6361 13.6855C38.7548 9.80426 33.4907 7.6238 28.0018 7.6238ZM0.00182615 28.3198C-0.040474 24.6161 0.652476 20.9408 2.04054 17.5068C3.42861 14.0728 5.48421 10.9484 8.08827 8.31439C10.6923 5.68041 13.7931 3.58927 17.211 2.16207C20.629 0.734878 24.2961 0 28 0C31.7039 0 35.371 0.734878 38.789 2.16207C42.2069 3.58927 45.3077 5.68041 47.9117 8.31439C50.5158 10.9484 52.5714 14.0728 53.9595 17.5068C55.3475 20.9408 56.0405 24.6161 55.9982 28.3198C55.914 35.69 52.9271 42.7297 47.6856 47.9117C42.4441 53.0937 35.3707 56 28 56C20.6293 56 13.5559 53.0937 8.31439 47.9117C3.07286 42.7297 0.086002 35.69 0.00182615 28.3198ZM28.0018 14.9278C28.9704 14.9278 29.8993 15.3126 30.5842 15.9975C31.2691 16.6824 31.6538 17.6113 31.6538 18.5798V28.3198C31.6538 29.2883 31.2691 30.2172 30.5842 30.9021C29.8993 31.587 28.9704 31.9718 28.0018 31.9718C27.0333 31.9718 26.1043 31.587 25.4195 30.9021C24.7346 30.2172 24.3498 29.2883 24.3498 28.3198V18.5798C24.3498 17.6113 24.7346 16.6824 25.4195 15.9975C26.1043 15.3126 27.0333 14.9278 28.0018 14.9278ZM28.0018 34.4077C27.0333 34.4077 26.1043 34.7924 25.4195 35.4773C24.7346 36.1622 24.3498 37.0911 24.3498 38.0597C24.3498 39.0283 24.7346 39.9572 25.4195 40.6421C26.1043 41.3269 27.0333 41.7117 28.0018 41.7117H28.0274C28.996 41.7117 29.9249 41.3269 30.6098 40.6421C31.2946 39.9572 31.6794 39.0283 31.6794 38.0597C31.6794 37.0911 31.2946 36.1622 30.6098 35.4773C29.9249 34.7924 28.996 34.4077 28.0274 34.4077H28.0018Z" fill="#E14917"/>
</svg>
