<svg width="112" height="90" viewBox="0 0 112 90" fill="none" xmlns="http://www.w3.org/2000/svg">
<path d="M89.7582 32.6065L78.1646 0C76.1736 0 35.5272 0 33.8396 0L22.246 32.6067C16.2094 49.5851 30.6823 66.9208 52.7207 68.605V84.7266H33.0332V90H78.9707V84.7266H59.2832V68.6046C81.4142 66.9122 95.7657 49.5033 89.7582 32.6065ZM55.0859 5.27344H61.2933L55.5293 19.1691L61.8533 24.2511L60.5719 26.3106L49.9124 17.7449L55.0859 5.27344ZM56.1217 63.4569L56.002 63.457L55.8799 63.4569C37.0066 63.3959 23.3109 48.8074 28.5559 34.0553L38.7897 5.27344H48.1683L42.4043 19.1691L56.0022 30.096V45.4467L69.8384 23.2098L63.0374 17.7449L68.2109 5.27344H73.2146L83.4481 34.0553C88.6959 48.8148 74.9805 63.3959 56.1217 63.4569Z" fill="#D9D9D9"/>
</svg>
