<svg width="91" height="90" viewBox="0 0 91 90" fill="none" xmlns="http://www.w3.org/2000/svg">
<g clip-path="url(#clip0_5_2816)">
<path d="M42.8289 0.00299072V7.33156L19.588 13.3008L20.8853 18.299L0 30.2766L34.6777 89.997L64.2727 73.084L80.6718 68.9163H91V17.3697L73.4403 0.00299072H42.8289ZM36.6392 82.785L7.26886 32.2044L22.2629 23.6055L36.9101 80.0379L45.0785 77.9621L36.6392 82.785ZM40.749 73.617L26.0753 17.0835L42.8289 12.7806V68.9165H59.2451L40.749 73.617ZM85.6674 63.6425H48.1615V5.27698H69.6696V21.099H85.6674V63.6425ZM75.0022 9.00623L81.8967 15.825H75.0022V9.00623Z" fill="#D9D9D9"/>
</g>
<defs>
<clipPath id="clip0_5_2816">
<rect width="91" height="90" fill="white"/>
</clipPath>
</defs>
</svg>
