<svg width="99" height="90" viewBox="0 0 99 90" fill="none" xmlns="http://www.w3.org/2000/svg">
<g clip-path="url(#clip0_5_2812)">
<path d="M34.8736 21.6702V18.5108H37.2313V0H8.91369V18.5108H11.2715V21.6702L4.66373 27.5233C2.12652 29.7707 0.671204 32.8878 0.671204 36.0754V90H45.4736V36.0754C45.4736 32.8876 44.0185 29.7706 41.4813 27.5233L34.8736 21.6702ZM14.7334 5.29066H31.4116V13.2201H14.7334V5.29066ZM8.72513 31.3126L17.091 23.902V18.5108H29.0538V23.902L37.4199 31.3126C38.8605 32.5885 39.6539 34.2801 39.6539 36.0754V36.7817H6.49113V36.0754C6.49113 34.2801 7.28455 32.5887 8.72513 31.3126ZM6.49113 52.7576V42.0724H39.6541V52.7576H6.49113ZM39.6539 58.0483V68.7335H6.49113V58.0483H39.6539ZM6.49113 84.7093V74.0241H39.6541V84.7093H6.49113Z" fill="#D9D9D9"/>
<path d="M98.3288 35.3968H77.4387V26.0821C77.4387 24.497 78.8573 23.2073 80.6009 23.2073H93.6381V17.9167H80.6009C75.6483 17.9167 71.6189 21.5797 71.6189 26.0821V35.3968H50.7288V40.6875H53.9976L56.0215 90H93.0361L95.06 40.6875H98.3288V35.3968ZM87.4292 84.7093H61.6282L59.8214 40.6875H89.2362L87.4292 84.7093Z" fill="#D9D9D9"/>
</g>
<defs>
<clipPath id="clip0_5_2812">
<rect width="99" height="90" fill="white"/>
</clipPath>
</defs>
</svg>
