<svg width="56" height="56" viewBox="0 0 56 56" fill="none" xmlns="http://www.w3.org/2000/svg">
<path fill-rule="evenodd" clip-rule="evenodd" d="M23.6273 8.64331C27.7992 7.70035 32.1642 8.13126 36.0713 9.87178C37.837 10.6584 39.9061 9.86464 40.6927 8.09893C41.4793 6.33321 40.6855 4.26416 38.9198 3.47756C33.6339 1.12278 27.7284 0.539789 22.084 1.81554C16.4397 3.0913 11.359 6.15744 7.59963 10.5567C3.84028 14.9559 1.60372 20.4525 1.22353 26.2267C0.843333 32.0009 2.33987 37.7434 5.48995 42.5975C8.64003 47.4517 13.2749 51.1576 18.7032 53.1624C24.1315 55.1672 30.0625 55.3636 35.6115 53.7222C41.1606 52.0808 46.0304 48.6896 49.4946 44.0545C52.9589 39.4193 54.832 33.7884 54.8345 28.0017V25.8547C54.8345 23.9217 53.2675 22.3547 51.3345 22.3547C49.4015 22.3547 47.8345 23.9217 47.8345 25.8547V27.9986C47.8323 32.2753 46.4479 36.4382 43.8876 39.8639C41.327 43.2899 37.7275 45.7965 33.626 47.0097C29.5245 48.2229 25.1406 48.0777 21.1283 46.5959C17.116 45.1141 13.6902 42.3749 11.3619 38.787C9.03354 35.1991 7.92739 30.9546 8.2084 26.6866C8.48942 22.4187 10.1426 18.3559 12.9212 15.1042C15.6999 11.8526 19.4553 9.58627 23.6273 8.64331ZM53.8105 11.8082C55.1767 10.4408 55.1757 8.22471 53.8083 6.85849C52.4408 5.49227 50.2247 5.49327 48.8585 6.86072L27.9989 27.7391L23.4749 23.2151C22.108 21.8483 19.892 21.8483 18.5251 23.2151C17.1583 24.5819 17.1583 26.798 18.5251 28.1649L25.5251 35.1648C26.1817 35.8214 27.0723 36.1902 28.0008 36.19C28.9293 36.1898 29.8197 35.8206 30.476 35.1637L53.8105 11.8082Z" fill="#488758"/>
</svg>
